<?xml version="1.0" encoding="UTF-8" standalone="no"?>
<!DOCTYPE svg PUBLIC "-//W3C//DTD SVG 1.1//EN" "http://www.w3.org/Graphics/SVG/1.1/DTD/svg11.dtd">
<svg width="100%" height="100%" viewBox="0 0 1366 769" version="1.1" xmlns="http://www.w3.org/2000/svg" xmlns:xlink="http://www.w3.org/1999/xlink" xml:space="preserve" xmlns:serif="http://www.serif.com/" style="fill-rule:evenodd;clip-rule:evenodd;stroke-linejoin:round;stroke-miterlimit:2;">
    <g id="Plan-de-travail1" serif:id="Plan de travail1" transform="matrix(1,0,0,1,-0.986144,-0.845616)">
        <rect x="0.986" y="0.846" width="1365.17" height="768.036" style="fill:none;"/>
        <g id="Layer-1" serif:id="Layer 1" transform="matrix(1,0,0,1,0.986144,0.845616)">
            <g id="layer6">
                <g transform="matrix(0.981511,0.191405,0.191405,-0.981511,1036.84,284.367)">
                    <path d="M2.236,-0.672C2.236,-0.672 12.761,19.747 26.043,18.81C26.043,18.81 13.365,24.399 2.236,9.129C2.236,9.129 -7.316,19.358 -19.45,16.992C-19.45,16.992 -1.645,9.427 2.236,-0.672" style="fill-rule:nonzero;"/>
                </g>
                <g transform="matrix(0.981511,0.191405,0.191405,-0.981511,853.838,417.367)">
                    <path d="M2.236,-0.672C2.236,-0.672 12.761,19.747 26.043,18.81C26.043,18.81 13.365,24.399 2.236,9.129C2.236,9.129 -7.316,19.358 -19.45,16.992C-19.45,16.992 -1.645,9.427 2.236,-0.672" style="fill-rule:nonzero;"/>
                </g>
                <g opacity="0.43">
                    <g transform="matrix(0.914239,0.405176,0.405176,-0.914239,854.295,444.168)">
                        <path d="M2.398,-1.438C2.398,-1.438 12.202,11.582 24.573,15.399C24.573,15.399 12.764,13.973 2.398,3.192C2.398,3.192 -6.5,4.96 -17.802,-0.049C-17.802,-0.049 -1.217,2.088 2.398,-1.438" style="fill-rule:nonzero;"/>
                    </g>
                </g>
                <g transform="matrix(-0.0384354,0.999261,0.999261,0.0384354,674.028,204.435)">
                    <path d="M16.563,-35.418C16.563,-35.418 18.866,-19.247 38.929,-8.728C38.929,-8.728 16.358,7.947 16.563,15.265C16.563,15.265 13.334,10.519 27.17,-7.106C27.17,-7.106 12.109,-20.969 16.563,-35.418" style="fill-rule:nonzero;"/>
                </g>
                <g opacity="0.4">
                    <g transform="matrix(-0.0176304,0.999845,0.999845,0.0176304,665.89,366.324)">
                        <path d="M13.313,-18.658C13.313,-18.658 13.973,-8.604 19.722,-2.416C19.722,-2.416 13.253,8.426 13.313,12.992C13.313,12.992 12.388,10.089 16.352,-1.179C16.352,-1.179 12.036,-9.551 13.313,-18.658" style="fill-rule:nonzero;"/>
                    </g>
                </g>
                <g opacity="0.4">
                    <g transform="matrix(-0.0243574,0.999703,0.999703,0.0243574,1039.33,372.66)">
                        <path d="M7.803,-12.485C7.803,-12.485 8.378,-6.127 13.397,-2.16C13.397,-2.16 7.751,4.623 7.803,7.509C7.803,7.509 6.996,5.666 10.456,-1.412C10.456,-1.412 6.689,-6.745 7.803,-12.485" style="fill-rule:nonzero;"/>
                    </g>
                </g>
            </g>
        </g>
    </g>
</svg>
