<?xml version="1.0" encoding="UTF-8" standalone="no"?>
<!DOCTYPE svg PUBLIC "-//W3C//DTD SVG 1.1//EN" "http://www.w3.org/Graphics/SVG/1.1/DTD/svg11.dtd">
<svg width="100%" height="100%" viewBox="0 0 1366 769" version="1.1" xmlns="http://www.w3.org/2000/svg" xmlns:xlink="http://www.w3.org/1999/xlink" xml:space="preserve" xmlns:serif="http://www.serif.com/" style="fill-rule:evenodd;clip-rule:evenodd;stroke-linejoin:round;stroke-miterlimit:2;">
    <g id="Plan-de-travail1" serif:id="Plan de travail1" transform="matrix(1,0,0,1,-0.986144,-0.845616)">
        <rect x="0.986" y="0.846" width="1365.17" height="768.036" style="fill:none;"/>
        <clipPath id="_clip1">
            <rect x="0.986" y="0.846" width="1365.17" height="768.036"/>
        </clipPath>
        <g clip-path="url(#_clip1)">
            <g transform="matrix(-29.9287,183.563,183.563,29.9287,770.285,15.702)">
                <g id="Layer-1" serif:id="Layer 1">
                    <path id="layer2" d="M0.316,-2.432L4.085,-2.321L3.019,3.743L0.075,3.263C0.006,3.048 0.002,2.783 0.076,2.526C0.096,2.456 0.114,2.382 0.128,2.303C0.185,1.989 0.142,1.822 0.086,1.734C-0.018,1.573 -0.009,1.307 0.112,1.13C0.119,1.12 0.126,1.11 0.133,1.101C0.302,0.878 0.34,0.524 0.214,0.295C0.2,0.269 0.185,0.246 0.171,0.227C0.084,0.103 0.028,-0.061 0.017,-0.245C-0,-0.538 0.079,-0.748 0.079,-0.748C0.104,-0.887 0.111,-1.025 0.107,-1.154L0.316,-2.432Z" style="fill:url(#_Linear2);fill-rule:nonzero;"/>
                </g>
            </g>
        </g>
    </g>
    <defs>
        <linearGradient id="_Linear2" x1="0" y1="0" x2="1" y2="0" gradientUnits="userSpaceOnUse" gradientTransform="matrix(1,0,0,-1,0,1.31135)"><stop offset="0" style="stop-color:rgb(239,175,98);stop-opacity:1"/><stop offset="0.97" style="stop-color:rgb(213,116,104);stop-opacity:1"/><stop offset="1" style="stop-color:rgb(213,116,104);stop-opacity:1"/></linearGradient>
    </defs>
</svg>
