<svg width="414" height="188" viewBox="0 0 414 188" fill="none" xmlns="http://www.w3.org/2000/svg">
<path d="M32.0156 98.7031H18.7969V125H6.9375V56.75H30.9375C38.8125 56.75 44.8906 58.5156 49.1719 62.0469C53.4531 65.5781 55.5938 70.6875 55.5938 77.375C55.5938 81.9375 54.4844 85.7656 52.2656 88.8594C50.0781 91.9219 47.0156 94.2812 43.0781 95.9375L58.4062 124.391V125H45.7031L32.0156 98.7031ZM18.7969 89.1875H30.9844C34.9844 89.1875 38.1094 88.1875 40.3594 86.1875C42.6094 84.1562 43.7344 81.3906 43.7344 77.8906C43.7344 74.2344 42.6875 71.4062 40.5938 69.4062C38.5312 67.4062 35.4375 66.375 31.3125 66.3125H18.7969V89.1875Z" fill="#D8614A"/>
<circle cx="351.5" cy="62.5" r="62.5" fill="#D8614A"/>
<circle opacity="0.5" cx="341.5" cy="125.5" r="62.5" fill="#EFAF62"/>
<line x1="46" y1="120" x2="257" y2="120" stroke="#D8614A" stroke-width="10"/>
<path opacity="0.8" d="M73.3203 83.6289C73.3203 79.8555 74.0469 76.4922 75.5 73.5391C76.9531 70.5859 79.0391 68.3008 81.7578 66.6836C84.5 65.0664 87.6758 64.2578 91.2852 64.2578C96.418 64.2578 100.602 65.8281 103.836 68.9688C107.094 72.1094 108.91 76.375 109.285 81.7656L109.355 84.3672C109.355 90.2031 107.727 94.8906 104.469 98.4297C101.211 101.945 96.8398 103.703 91.3555 103.703C85.8711 103.703 81.4883 101.945 78.207 98.4297C74.9492 94.9141 73.3203 90.1328 73.3203 84.0859V83.6289ZM83.4805 84.3672C83.4805 87.9766 84.1602 90.7422 85.5195 92.6641C86.8789 94.5625 88.8242 95.5117 91.3555 95.5117C93.8164 95.5117 95.7383 94.5742 97.1211 92.6992C98.5039 90.8008 99.1953 87.7773 99.1953 83.6289C99.1953 80.0898 98.5039 77.3477 97.1211 75.4023C95.7383 73.457 93.793 72.4844 91.2852 72.4844C88.8008 72.4844 86.8789 73.457 85.5195 75.4023C84.1602 77.3242 83.4805 80.3125 83.4805 84.3672ZM143.056 103C142.588 102.086 142.248 100.949 142.037 99.5898C139.576 102.332 136.377 103.703 132.439 103.703C128.713 103.703 125.619 102.625 123.158 100.469C120.72 98.3125 119.502 95.5938 119.502 92.3125C119.502 88.2812 120.99 85.1875 123.966 83.0312C126.966 80.875 131.291 79.7852 136.939 79.7617H141.615V77.582C141.615 75.8242 141.158 74.418 140.244 73.3633C139.353 72.3086 137.935 71.7812 135.99 71.7812C134.279 71.7812 132.931 72.1914 131.947 73.0117C130.986 73.832 130.505 74.957 130.505 76.3867H120.345C120.345 74.1836 121.025 72.1445 122.384 70.2695C123.744 68.3945 125.666 66.9297 128.15 65.875C130.634 64.7969 133.423 64.2578 136.517 64.2578C141.205 64.2578 144.92 65.4414 147.662 67.8086C150.427 70.1523 151.81 73.457 151.81 77.7227V94.2109C151.834 97.8203 152.338 100.551 153.322 102.402V103H143.056ZM134.654 95.9336C136.154 95.9336 137.537 95.6055 138.802 94.9492C140.068 94.2695 141.005 93.3672 141.615 92.2422V85.7031H137.818C132.732 85.7031 130.025 87.4609 129.697 90.9766L129.662 91.5742C129.662 92.8398 130.107 93.8828 130.998 94.7031C131.888 95.5234 133.107 95.9336 134.654 95.9336ZM163.433 83.6992C163.433 77.7695 164.757 73.0469 167.405 69.5312C170.077 66.0156 173.722 64.2578 178.339 64.2578C182.042 64.2578 185.101 65.6406 187.515 68.4062V49H197.71V103H188.534L188.042 98.957C185.511 102.121 182.253 103.703 178.269 103.703C173.792 103.703 170.195 101.945 167.476 98.4297C164.78 94.8906 163.433 89.9805 163.433 83.6992ZM173.593 84.4375C173.593 88 174.214 90.7305 175.456 92.6289C176.698 94.5273 178.503 95.4766 180.87 95.4766C184.011 95.4766 186.226 94.1523 187.515 91.5039V76.4922C186.249 73.8438 184.058 72.5195 180.941 72.5195C176.042 72.5195 173.593 76.4922 173.593 84.4375ZM231.587 92.4883C231.587 91.2461 230.966 90.2734 229.723 89.5703C228.505 88.8438 226.536 88.1992 223.817 87.6367C214.77 85.7383 210.247 81.8945 210.247 76.1055C210.247 72.7305 211.641 69.918 214.43 67.668C217.243 65.3945 220.911 64.2578 225.434 64.2578C230.262 64.2578 234.118 65.3945 237.001 67.668C239.907 69.9414 241.36 72.8945 241.36 76.5273H231.2C231.2 75.0742 230.731 73.8789 229.794 72.9414C228.856 71.9805 227.391 71.5 225.399 71.5C223.688 71.5 222.364 71.8867 221.427 72.6602C220.489 73.4336 220.02 74.418 220.02 75.6133C220.02 76.7383 220.548 77.6523 221.602 78.3555C222.68 79.0352 224.485 79.6328 227.016 80.1484C229.548 80.6406 231.68 81.2031 233.415 81.8359C238.782 83.8047 241.466 87.2148 241.466 92.0664C241.466 95.5352 239.977 98.3477 237.001 100.504C234.024 102.637 230.18 103.703 225.47 103.703C222.282 103.703 219.446 103.141 216.962 102.016C214.501 100.867 212.567 99.3086 211.161 97.3398C209.755 95.3477 209.052 93.2031 209.052 90.9062H218.684C218.778 92.7109 219.446 94.0938 220.688 95.0547C221.93 96.0156 223.595 96.4961 225.68 96.4961C227.626 96.4961 229.091 96.1328 230.075 95.4062C231.083 94.6562 231.587 93.6836 231.587 92.4883Z" fill="black" fill-opacity="0.82"/>
</svg>
